# xmcd
#
# Track frame offsets: 
#        150
#        16930
#        34362
#        48532
#        65960
#        81185
#        98732
#        115195
#        137897
#        156015
#        172755
#        187797
#
# Disc length: 2702 seconds
#
# Revision: 0
# Processed by: cddbd v1.5.2PL0 Copyright (c) Steve Scherf et al.
# Submitted via: ExactAudioCopy v0.99pb3
#
DISCID=990a8c0c
DTITLE=Eric Lindell and The Reds - Bring It Back
DYEAR=1996
DGENRE=Blues
TTITLE0=Neverland
TTITLE1=Who's To Judge
TTITLE2=Do Whatcha Do
TTITLE3=Let Me In
TTITLE4=Jump and Shout
TTITLE5=Bluff Me Baby
TTITLE6=Devil Woman
TTITLE7=The Blues
TTITLE8=Bring It Back
TTITLE9=Lady
TTITLE10=Downer
TTITLE11=G*surf
EXTD=
EXTT0=
EXTT1=
EXTT2=
EXTT3=
EXTT4=
EXTT5=
EXTT6=
EXTT7=
EXTT8=
EXTT9=
EXTT10=
EXTT11=
PLAYORDER=
